<?xml version="1.0" encoding="utf-8"?>
<!-- Generator: Adobe Illustrator 25.2.1, SVG Export Plug-In . SVG Version: 6.00 Build 0)  -->
<svg version="1.1" id="Layer_1" xmlns="http://www.w3.org/2000/svg" xmlns:xlink="http://www.w3.org/1999/xlink" x="0px" y="0px"
	 viewBox="0 0 180 24" enable-background="new 0 0 180 24" xml:space="preserve">
<g>
	<path fill="#11808C" d="M13.27,0c5.4,0,8.1,0,9.8,1.7c1.7,1.7,1.7,4.4,1.7,9.8v1.01c0,5.4,0,8.1-1.7,9.8c-1.63,1.7-4.4,1.7-9.8,1.7
		h-1.01c-5.4,0-8.1,0-9.8-1.7c-1.7-1.63-1.7-4.4-1.7-9.8V11.5c0-5.4,0-8.1,1.7-9.8C4.1,0,6.86,0,12.26,0H13.27z"/>
	<path fill="#FFFFFF" d="M17.6,18c-0.83,0-1.5-0.67-1.5-1.5v-5.72l-3.5-2.45l-3.5,2.45v5.72c0,0.83-0.67,1.5-1.5,1.5
		s-1.5-0.67-1.5-1.5V10c0-0.49,0.24-0.95,0.64-1.23l5-3.5c0.52-0.36,1.2-0.36,1.72,0l5,3.5c0.4,0.28,0.64,0.74,0.64,1.23v6.5
		C19.1,17.33,18.43,18,17.6,18z"/>
	<path fill="#11808C" d="M43.42,4.56l-3.85,8.21l-3.83-8.21h-3.73l5.71,11.23c-0.6,1.14-1.11,1.6-2.25,1.6c-0.74,0-1.46-0.39-2-0.83
		l-1.25,2.64c0.7,0.63,2.09,1.11,3.5,1.11c2.76,0,4.11-1.37,5.06-3.25l6.38-12.5H43.42z M57.96,8.83H48.9l-0.72,5.43
		c-0.35,2.71-0.88,3.15-1.79,3.32v5.31h2.97v-2.85h6.89v2.85h2.95v-5.43h-1.23V8.83z M55.02,17.46h-5.2c0.7-0.65,1.14-1.65,1.3-3.01
		l0.35-3.04h3.55V17.46z M66.25,8.55c-3.69,0-5.91,2.69-5.91,5.87c0,3.2,2.23,5.89,5.91,5.89c3.71,0,5.94-2.69,5.94-5.89
		C72.19,11.24,69.96,8.55,66.25,8.55z M66.25,17.69c-1.83,0-2.85-1.51-2.85-3.27c0-1.74,1.02-3.25,2.85-3.25s2.88,1.51,2.88,3.25
		C69.12,16.18,68.08,17.69,66.25,17.69z M80.19,8.55c-1.55,0-2.92,0.65-3.83,1.83c0.3-1.3,1.39-2.46,4.04-2.81
		c1.83-0.23,4.66-0.83,4.66-3.02H82c0,0.39-0.65,0.67-2.53,0.95c-3.85,0.51-5.82,2.95-5.82,8.4c0,3.64,2.18,6.4,5.91,6.4
		s5.91-2.76,5.91-5.91C85.48,11.29,83.39,8.55,80.19,8.55z M79.57,17.69c-1.83,0-2.85-1.51-2.85-3.32c0-1.69,1.02-3.2,2.85-3.2
		s2.88,1.51,2.88,3.2C82.44,16.18,81.4,17.69,79.57,17.69z M95.34,12.98H90.7V8.83h-2.95v11.2h2.95v-4.48h4.64v4.48h2.95V8.83h-2.95
		V12.98z M113.34,20.03h2.97V8.83h-2.97V20.03z M107.98,12.68h-3.83V8.83h-2.95v11.2h6.77c2.5,0,3.9-1.69,3.9-3.69
		C111.88,14.37,110.58,12.68,107.98,12.68z M107.54,17.55h-3.39v-2.41h3.39c0.83,0,1.32,0.51,1.32,1.21
		C108.86,17.04,108.38,17.55,107.54,17.55z M124.48,7.71c1.67,0,3.13-0.79,4.06-2.04l-1.3-1.09c-0.65,0.9-1.6,1.44-2.76,1.44
		c-1.21,0-2.16-0.56-2.78-1.44l-1.3,1.09C121.35,6.93,122.83,7.71,124.48,7.71z M122.16,15.6V8.83h-2.95v11.2h2.83L126.8,13v7.03
		h2.95V8.83h-2.97L122.16,15.6z M149.14,8.83h-9.07l-0.72,5.43c-0.35,2.71-0.88,3.15-1.79,3.32v5.31h2.97v-2.85h6.89v2.85h2.95
		v-5.43h-1.23V8.83z M146.19,17.46H141c0.7-0.65,1.14-1.65,1.3-3.01l0.35-3.04h3.55V17.46z M157.42,8.55
		c-3.69,0-5.91,2.69-5.91,5.87c0,3.2,2.23,5.89,5.91,5.89c3.71,0,5.94-2.69,5.94-5.89C163.36,11.24,161.13,8.55,157.42,8.55z
		 M157.42,17.69c-1.83,0-2.85-1.51-2.85-3.27c0-1.74,1.02-3.25,2.85-3.25s2.88,1.51,2.88,3.25
		C160.3,16.18,159.25,17.69,157.42,17.69z M174.89,8.83l-2.71,6.68l-2.76-6.68h-3.87v11.2h2.95v-7.28l3.02,7.28h1.35l2.99-7.28v7.28
		h2.95V8.83H174.89z"/>
</g>
</svg>
