<?xml version="1.0" encoding="utf-8"?>
<!-- Generator: Adobe Illustrator 25.2.1, SVG Export Plug-In . SVG Version: 6.00 Build 0)  -->
<svg version="1.1" id="Layer_1" xmlns="http://www.w3.org/2000/svg" xmlns:xlink="http://www.w3.org/1999/xlink" x="0px" y="0px"
	 viewBox="0 0 25 24" enable-background="new 0 0 25 24" xml:space="preserve">
<g>
	<path fill="#11808C" d="M13.27,0c5.4,0,8.1,0,9.8,1.7c1.7,1.7,1.7,4.4,1.7,9.8v1.01c0,5.4,0,8.1-1.7,9.8c-1.63,1.7-4.4,1.7-9.8,1.7
		h-1.01c-5.4,0-8.1,0-9.8-1.7c-1.7-1.63-1.7-4.4-1.7-9.8V11.5c0-5.4,0-8.1,1.7-9.8C4.1,0,6.86,0,12.26,0H13.27z"/>
	<path fill="#FFFFFF" d="M17.6,18c-0.83,0-1.5-0.67-1.5-1.5v-5.72l-3.5-2.45l-3.5,2.45v5.72c0,0.83-0.67,1.5-1.5,1.5
		s-1.5-0.67-1.5-1.5V10c0-0.49,0.24-0.95,0.64-1.23l5-3.5c0.52-0.36,1.2-0.36,1.72,0l5,3.5c0.4,0.28,0.64,0.74,0.64,1.23v6.5
		C19.1,17.33,18.43,18,17.6,18z"/>
</g>
</svg>
